<svg width="512" height="512" viewBox="0 0 512 512" fill="none" xmlns="http://www.w3.org/2000/svg">
<g clip-path="url(#clip0_1_2)">
<path d="M255.993 255.994L366.843 319.991L255.993 511.985C397.373 511.985 511.985 397.375 511.985 255.995C511.985 209.353 499.449 165.663 477.654 127.997H255.99L255.993 255.994Z" fill="url(#paint0_linear_1_2)"/>
<path d="M255.99 0C161.24 0 78.578 51.513 34.313 128.027L145.14 319.991L255.99 255.994V127.997H477.654C433.382 51.502 350.729 0 255.99 0Z" fill="url(#paint1_linear_1_2)"/>
<path d="M0.002 255.994C0.002 397.374 114.609 511.984 255.993 511.984L366.843 319.991L255.993 255.994L145.143 319.991L34.315 128.027C12.53 165.682 0 209.357 0 255.991" fill="url(#paint2_linear_1_2)"/>
<path d="M383.99 255.994C383.99 326.684 326.684 383.991 255.993 383.991C185.303 383.991 127.995 326.684 127.995 255.994C127.995 185.304 185.303 127.997 255.993 127.997C326.683 127.997 383.991 185.304 383.991 255.994" fill="white"/>
<path d="M359.992 255.994C359.992 313.43 313.429 359.992 255.993 359.992C198.557 359.992 151.995 313.43 151.995 255.994C151.995 198.559 198.557 151.996 255.993 151.996C313.429 151.996 359.992 198.559 359.992 255.994Z" fill="url(#paint3_linear_1_2)"/>
<g opacity="0.9">
<path fill-rule="evenodd" clip-rule="evenodd" d="M292.553 78.832L309.405 95.824L193.16 213.79V95.824H204.442L221.294 78.832V33.986L204.442 16.994H17.067L0.213989 33.986V78.832L17.067 95.824H30.207V478.142L50.771 494.995H108.898L511.772 78.832V33.986L494.92 16.994H311.265L292.553 33.986V78.832Z" fill="black"/>
<path d="M292.553 78.832L309.405 95.824L193.16 213.79V95.824H204.442L221.294 78.832V33.986L204.442 16.994H17.067L0.213989 33.986V78.832L17.067 95.824H30.207V478.142L50.771 494.995H108.898L511.772 78.832V33.986L494.92 16.994H311.265L292.553 33.986V78.832Z" stroke="black" stroke-width="0.428442" stroke-miterlimit="2.613"/>
<path fill-rule="evenodd" clip-rule="evenodd" d="M22.637 84.543L11.357 73.26V39.557L22.637 28.275L198.87 28.135L210.012 39.557L198.87 44.988L193.16 39.557L22.636 67.55V84.542" fill="white"/>
<path d="M22.637 84.543L11.357 73.26V39.557L22.637 28.275L198.87 28.135L210.012 39.557L198.87 44.988L193.16 39.557L22.636 67.55L22.637 84.543Z" stroke="black" stroke-width="0.428442" stroke-miterlimit="2.613"/>
<path fill-rule="evenodd" clip-rule="evenodd" d="M56.342 483.713L43.202 472.432V84.403L56.342 73.261V483.713Z" fill="white"/>
<path d="M56.342 483.713L43.202 472.432V84.403L56.342 73.261V483.713Z" stroke="black" stroke-width="0.428442" stroke-miterlimit="2.613"/>
<path fill-rule="evenodd" clip-rule="evenodd" d="M337.539 84.543L348.82 73.26V95.823L161.307 286.91L182.017 241.924L337.54 84.543" fill="white"/>
<path d="M337.539 84.543L348.82 73.26V95.823L161.307 286.91L182.017 241.924L337.539 84.543Z" stroke="black" stroke-width="0.428442" stroke-miterlimit="2.613"/>
<path fill-rule="evenodd" clip-rule="evenodd" d="M60.193 67.69L56.342 73.261L43.202 84.543H22.636V61.98L60.193 67.69Z" fill="#7F7F7F"/>
<path d="M60.193 67.69L56.342 73.261L43.202 84.543H22.636V61.98L60.193 67.69Z" stroke="black" stroke-width="0.428442" stroke-miterlimit="2.613"/>
<path fill-rule="evenodd" clip-rule="evenodd" d="M182.017 84.543V241.923L161.307 286.77V73.122H193.159L198.869 67.551L193.159 39.557H210.012V73.26L198.87 84.543H182.017Z" fill="#7F7F7F"/>
<path d="M182.017 84.543V241.923L161.307 286.77V73.122H193.159L198.869 67.551L193.159 39.557H210.012V73.26L198.87 84.543H182.017Z" stroke="black" stroke-width="0.428442" stroke-miterlimit="2.613"/>
<path fill-rule="evenodd" clip-rule="evenodd" d="M314.976 84.543L303.834 73.26V39.557L316.836 28.275H487.497L500.638 39.557L481.787 56.409L314.977 67.551L314.976 84.543Z" fill="white"/>
<path d="M314.976 84.543L303.834 73.26V39.557L316.836 28.275H487.497L500.638 39.557L481.787 56.409L314.977 67.551L314.976 84.543Z" stroke="black" stroke-width="0.428442" stroke-miterlimit="2.613"/>
<path fill-rule="evenodd" clip-rule="evenodd" d="M500.638 73.261L105.039 483.713H56.342V466.861H92.046L487.497 61.98L481.787 39.557H500.638V73.261Z" fill="#7F7F7F"/>
<path d="M500.638 73.261L105.039 483.713H56.342V466.861H92.046L487.497 61.98L481.787 39.557H500.638V73.261Z" stroke="black" stroke-width="0.428442" stroke-miterlimit="2.613"/>
<path fill-rule="evenodd" clip-rule="evenodd" d="M352.54 67.69L348.68 73.261L337.539 84.543H314.976V61.98L352.539 67.69" fill="#7F7F7F"/>
<path d="M352.54 67.69L348.68 73.261L337.539 84.543H314.976V61.98L352.54 67.69Z" stroke="black" stroke-width="0.428442" stroke-miterlimit="2.613"/>
<path fill-rule="evenodd" clip-rule="evenodd" d="M161.307 286.77V73.122H193.159L198.869 67.551V44.988L193.159 39.418H28.21L22.638 44.988V67.551L28.209 73.121H56.343V466.861L63.626 472.432H95.758L489.349 61.98V45.84L483.639 39.417H320.687L314.977 44.988V67.69L320.687 73.261H348.82V95.824L161.307 286.77Z" fill="#CCCCCC"/>
<path d="M161.307 286.77V73.122H193.159L198.869 67.551V44.988L193.159 39.418H28.21L22.638 44.988V67.551L28.209 73.121H56.343V466.861L63.626 472.432H95.758L489.349 61.98V45.84L483.639 39.417H320.687L314.977 44.988V67.69L320.687 73.261H348.82V95.824L161.307 286.77Z" stroke="black" stroke-width="0.428442" stroke-miterlimit="2.613"/>
</g>
<rect x="87" y="273" width="339" height="174" rx="20" fill="black"/>
<path d="M150.182 323.909V313.909H220V323.909H190.727V407H179.455V323.909H150.182ZM246.989 408.636C242.564 408.636 238.549 407.803 234.943 406.136C231.337 404.439 228.473 402 226.352 398.818C224.231 395.606 223.17 391.727 223.17 387.182C223.17 383.182 223.958 379.939 225.534 377.455C227.11 374.939 229.216 372.97 231.852 371.545C234.489 370.121 237.398 369.061 240.58 368.364C243.792 367.636 247.019 367.061 250.261 366.636C254.504 366.091 257.943 365.682 260.58 365.409C263.246 365.106 265.186 364.606 266.398 363.909C267.64 363.212 268.261 362 268.261 360.273V359.909C268.261 355.424 267.034 351.939 264.58 349.455C262.155 346.97 258.473 345.727 253.534 345.727C248.413 345.727 244.398 346.848 241.489 349.091C238.58 351.333 236.534 353.727 235.352 356.273L225.17 352.636C226.989 348.394 229.413 345.091 232.443 342.727C235.504 340.333 238.837 338.667 242.443 337.727C246.08 336.758 249.655 336.273 253.17 336.273C255.413 336.273 257.989 336.545 260.898 337.091C263.837 337.606 266.67 338.682 269.398 340.318C272.155 341.955 274.443 344.424 276.261 347.727C278.08 351.03 278.989 355.455 278.989 361V407H268.261V397.545H267.716C266.989 399.061 265.777 400.682 264.08 402.409C262.383 404.136 260.125 405.606 257.307 406.818C254.489 408.03 251.049 408.636 246.989 408.636ZM248.625 399C252.867 399 256.443 398.167 259.352 396.5C262.292 394.833 264.504 392.682 265.989 390.045C267.504 387.409 268.261 384.636 268.261 381.727V371.909C267.807 372.455 266.807 372.955 265.261 373.409C263.746 373.833 261.989 374.212 259.989 374.545C258.019 374.848 256.095 375.121 254.216 375.364C252.367 375.576 250.867 375.758 249.716 375.909C246.928 376.273 244.322 376.864 241.898 377.682C239.504 378.47 237.564 379.667 236.08 381.273C234.625 382.848 233.898 385 233.898 387.727C233.898 391.455 235.277 394.273 238.034 396.182C240.822 398.061 244.352 399 248.625 399ZM300.023 407V313.909H310.75V348.273H311.659C312.447 347.061 313.538 345.515 314.932 343.636C316.356 341.727 318.386 340.03 321.023 338.545C323.689 337.03 327.295 336.273 331.841 336.273C337.72 336.273 342.902 337.742 347.386 340.682C351.871 343.621 355.371 347.788 357.886 353.182C360.402 358.576 361.659 364.939 361.659 372.273C361.659 379.667 360.402 386.076 357.886 391.5C355.371 396.894 351.886 401.076 347.432 404.045C342.977 406.985 337.841 408.455 332.023 408.455C327.538 408.455 323.947 407.712 321.25 406.227C318.553 404.712 316.477 403 315.023 401.091C313.568 399.152 312.447 397.545 311.659 396.273H310.386V407H300.023ZM310.568 372.091C310.568 377.364 311.341 382.015 312.886 386.045C314.432 390.045 316.689 393.182 319.659 395.455C322.629 397.697 326.265 398.818 330.568 398.818C335.053 398.818 338.795 397.636 341.795 395.273C344.826 392.879 347.098 389.667 348.614 385.636C350.159 381.576 350.932 377.061 350.932 372.091C350.932 367.182 350.174 362.758 348.659 358.818C347.174 354.848 344.917 351.712 341.886 349.409C338.886 347.076 335.114 345.909 330.568 345.909C326.205 345.909 322.538 347.015 319.568 349.227C316.598 351.409 314.356 354.47 312.841 358.409C311.326 362.318 310.568 366.879 310.568 372.091Z" fill="white"/>
</g>
<defs>
<linearGradient id="paint0_linear_1_2" x1="384.535" y1="127.468" x2="383.987" y2="511.984" gradientUnits="userSpaceOnUse">
<stop stop-color="#AFCCFB"/>
<stop offset="1" stop-color="#8BB5F8"/>
</linearGradient>
<linearGradient id="paint1_linear_1_2" x1="218.816" y1="3.87894" x2="240.125" y2="347.842" gradientUnits="userSpaceOnUse">
<stop stop-color="#1972E7"/>
<stop offset="1" stop-color="#1969D5"/>
</linearGradient>
<linearGradient id="paint2_linear_1_2" x1="183.452" y1="127.965" x2="183.535" y2="512.016" gradientUnits="userSpaceOnUse">
<stop stop-color="#659CF6"/>
<stop offset="1" stop-color="#4285F4"/>
</linearGradient>
<linearGradient id="paint3_linear_1_2" x1="254.931" y1="152.393" x2="255.993" y2="359.992" gradientUnits="userSpaceOnUse">
<stop stop-color="#3680F0"/>
<stop offset="1" stop-color="#2678EC"/>
</linearGradient>
<clipPath id="clip0_1_2">
<rect width="511.985" height="511.985" fill="white"/>
</clipPath>
</defs>
</svg>
